HIERARCHY
ROOT Hips
{
	OFFSET	0.00	0.00	0.00
	CHANNELS 6 Xposition Yposition Zposition Zrotation Xrotation Yrotation
	JOINT Spine
	{
		OFFSET	 0.00	0.01	 0.00
		CHANNELS 3 Zrotation Xrotation Yrotation
		JOINT Spine1
		{
			OFFSET	 0.00	 2.45913012437421	 0.00
			CHANNELS 3 Zrotation Xrotation Yrotation
            JOINT Neck
            {
                OFFSET	 0.00	 2.48462964506057	 0.00
                CHANNELS 3 Zrotation Xrotation Yrotation
                JOINT Head
                {
                    OFFSET	 0.00	 0.927524780924562	 0.00
                    CHANNELS 3 Zrotation Xrotation Yrotation
                    End Site 
                    {
                        OFFSET	 0.00	 1.14999962169752	 0.00
                    }
                }
            }
			JOINT LeftShoulder
			{
				OFFSET	 0.00	 2.48462964506057	 0.00
				CHANNELS 3 Zrotation Xrotation Yrotation
				JOINT LeftUpArm
				{
					OFFSET	 0.00	 1.24881979654096	 0.00
					CHANNELS 3 Zrotation Xrotation Yrotation
					JOINT LeftForeArm
					{
						OFFSET	 0.00	2.59758046908119	 0.00
						CHANNELS 3 Zrotation Xrotation Yrotation
						JOINT LeftHand
						{
							OFFSET	 0.00	2.45542024364365	 0.00
							CHANNELS 3 Zrotation Xrotation Yrotation
							JOINT LeftHandThumb 
							{
								OFFSET	 0.00	0.00	 0.00
								CHANNELS 3 Zrotation Xrotation Yrotation
								End Site
								{
									OFFSET	 0.00	0.00	1.00000003353624
								}
							}
							JOINT L_Wrist_End 
							{
								OFFSET	 0.00	0.99999967115358	 0.00
								CHANNELS 3 Zrotation Xrotation Yrotation
								End Site 
								{
									OFFSET	 0.00	 0.00	 0.00
								}
							}
						}
					}
				}
			}
			JOINT RightShoulder
			{
				OFFSET	 0.00	 2.48462964506057	 0.00
				CHANNELS 3 Zrotation Xrotation Yrotation
				JOINT RightUpArm
				{
					OFFSET	 0.00	 1.24881979654096	 0.00
					CHANNELS 3 Zrotation Xrotation Yrotation
					JOINT RightForeArm
					{
						OFFSET	 0.00	2.59758046908119	 0.00
						CHANNELS 3 Zrotation Xrotation Yrotation
						JOINT RightHand
						{
							OFFSET	 0.00	2.45542024364365	 0.00
							CHANNELS 3 Zrotation Xrotation Yrotation
							JOINT RightHandThumb 
							{
								OFFSET	 0.00	0.00	 0.00
								CHANNELS 3 Zrotation Xrotation Yrotation
								End Site
								{
									OFFSET	 0.00	0.00	1.00000003353624
								}
							}
							JOINT R_Wrist_End 
							{
								OFFSET	 0.00	0.99999967115358	 0.00
								CHANNELS 3 Zrotation Xrotation Yrotation
								End Site 
								{
									OFFSET	 0.00	 0.00	 0.00
								}
							}
						}
					}
				}
			}
		}
	}
	JOINT LeftUpLeg
	{
		OFFSET	 1.2719394002717	 0.00	 0.00
		CHANNELS 3 Zrotation Xrotation Yrotation
		JOINT LeftLowLeg
		{
			OFFSET	 0.00	-4.3429100912261	 0.00
			CHANNELS 3 Zrotation Xrotation Yrotation
			JOINT LeftFoot
			{
				OFFSET	 0.00	-4.48767017425826	 0.00
				CHANNELS 3 Zrotation Xrotation Yrotation
				JOINT LeftToeBase
                {
                    OFFSET	 0.00	0.00	 1.51507020887566
                    CHANNELS 3 Zrotation Xrotation Yrotation
                    End Site 
                    {
                        OFFSET	 0.00	0.00	 0.75000010571191
                    }
                }
			}
		}
	}
	JOINT RightUpLeg
	{
		OFFSET	 -1.2719393604653	 0.00	 0.00
		CHANNELS 3 Zrotation Xrotation Yrotation
		JOINT RightLowLeg
		{
			OFFSET	 0.00	-4.3429100912261	 0.00
			CHANNELS 3 Zrotation Xrotation Yrotation
			JOINT RightFoot
			{
				OFFSET	 0.00	-4.48767017425826	 0.00
				CHANNELS 3 Zrotation Xrotation Yrotation
				JOINT RightToeBase
                {
                    OFFSET	 0.00	0.00	 1.51507020887566
                    CHANNELS 3 Zrotation Xrotation Yrotation
                    End Site 
                    {
                        OFFSET	 0.00	0.00	 0.749999965609858
                    }
                }   
			}
		}
	}
}
MOTION 
Frames:	20 
Frame Time: 0.02 
 -0.3440549850463867 -3.51989013671875 9.429089965820312 -162.456 74.1908 -190.323 4.08425 -25.3487 -0.530276 -3.42814 8.59486 0.409283 11.6617 33.2346 -1.66794 -28.2799 -76.0834 340.614 -121.0747 5.01708 13.8148 -36.2569 23.524 -343.095 0.0 29.9286 0.0 11.5891 -6.7428 386.136 0.0 0.0 0.0 0.0 0.0 0.0 121.9661 -1.52474 -3.67369 41.9291 13.6631 -30.6743 0.0 32.063 0.0 -5.30917 -0.363143 -8.81534 0.0 0.0 0.0 0.0 0.0 0.0 0.485065 -12.0669 -18.3197 0.0 4.91689 0.0 -4.42109 -1.9036999 9.77752 0.0 -10.31433 0.0 8.18801 -9.54603 23.2484 0.0 3.55334 0.0 3.57018 2.5847998 -30.0249 0.0 -17.56893 0.0 
  -0.3414630126953125 -3.5195098876953126 9.428049926757813 -162.446 74.0586 -190.455 4.25215 -25.3993 -0.345583 -3.54399 8.70403 0.472193 11.9096 33.0538 -1.86408 -27.9133 -76.1475 341.007 -121.2206 4.94207 13.8193 -36.0965 22.4103 -340.846 0.0 28.1706 0.0 10.7974 -6.89259 386.443 0.0 0.0 0.0 0.0 0.0 0.0 122.1961 -1.57959 -3.72689 41.9196 12.8095 -30.718 0.0 29.758 0.0 -4.51083 -0.449992 -9.35359 0.0 0.0 0.0 0.0 0.0 0.0 0.524721 -12.1617 -18.1707 0.0 4.88619 0.0 -4.4169 -1.9647999 9.7584 0.0 -10.27861 0.0 8.23753 -9.71958 23.411 0.0 3.64793 0.0 3.64366 2.5281 -30.01 0.0 -17.57883 0.0 
  -0.3398099899291992 -3.5207699584960936 9.4260498046875 -162.625 73.9711 -190.36 4.26168 -25.3692 -0.293256 -3.5403 8.70329 0.52155 12.064 32.9234 -1.99651 -27.617 -76.1523 341.315 -121.4075 4.77835 13.7951 -35.8795 21.1251 -337.982 0.0 26.4862 0.0 10.0851 -7.56006 386.601 0.0 0.0 0.0 0.0 0.0 0.0 122.298996 -1.64791 -3.70241 42.0524 11.8158 -30.624 0.0 27.2595 0.0 -3.72511 -0.797847 -10.6399 0.0 0.0 0.0 0.0 0.0 0.0 0.506706 -12.2117 -18.0735 0.0 4.84201 0.0 -4.41233 -2.0028992 9.73894 0.0 -10.2768 0.0 8.2196 -9.82551 23.4985 0.0 3.69753 0.0 3.6762 2.4139996 -29.9779 0.0 -17.55785 0.0 
  -0.3346360015869141 -3.5342001342773437 9.424320068359375 -162.501 73.8282 -190.046 4.23003 -25.7685 -0.530734 -3.62641 9.10924 0.339877 12.1813 32.6825 -2.13425 -27.0509 -76.0336 341.84 -121.379 4.62584 13.6665 -36.0902 19.8874 -335.206 0.0 24.3218 0.0 9.38693 -7.88813 387.247 0.0 0.0 0.0 0.0 0.0 0.0 122.2941 -1.67739 -3.56789 42.3913 10.7648 -30.1841 0.0 24.5769 0.0 -2.68278 -1.40756 -11.8902 0.0 0.0 0.0 0.0 0.0 0.0 0.452379 -12.3 -18.5623 0.0 4.79446 0.0 -4.35275 -1.9974003 9.81833 0.0 -10.280621 0.0 8.13356 -9.73611 22.9773 0.0 3.42237 0.0 3.54476 2.4145002 -29.9606 0.0 -17.53471 0.0 
  -0.33242599487304686 -3.532969970703125 9.422760009765625 -162.508 73.6081 -190.011 4.31226 -25.739 -0.481143 -3.65899 8.93413 0.298019 12.3054 32.6835 -2.22983 -27.0088 -76.0911 341.826 -121.4242 4.4965 13.6044 -36.3504 18.4852 -332.355 0.0 21.922 0.0 8.95337 -7.65394 388.605 0.0 0.0 0.0 0.0 0.0 0.0 122.4196 -1.83125 -3.59856 42.4954 9.69551 -29.5735 0.0 21.9861 0.0 -2.05777 -2.03607 -12.584 0.0 0.0 0.0 0.0 0.0 0.0 0.466141 -12.5397 -18.6328 0.0 4.8231 0.0 -4.38336 -2.0655003 9.82195 0.0 -10.25898 0.0 8.15221 -9.95447 22.9025 0.0 3.41899 0.0 3.56596 2.3775997 -29.8761 0.0 -17.55168 0.0 
  -0.33179500579833987 -3.5415798950195314 9.42197998046875 -162.656 73.6509 -190.013 4.2762 -25.6982 -0.462103 -3.59032 9.05423 0.368666 12.2199 32.6546 -2.09909 -26.8624 -76.1508 341.766 -121.463104 4.31464 13.5956 -36.718 17.0554 -330.45 0.0 19.8158 0.0 7.85866 -8.35995 390.121 0.0 0.0 0.0 0.0 0.0 0.0 122.4258 -1.92958 -3.46927 42.6646 8.48149 -28.8547 0.0 19.4644 0.0 -1.5054 -2.82003 -14.0786 0.0 0.0 0.0 0.0 0.0 0.0 0.482638 -12.3439 -18.4201 0.0 4.65165 0.0 -4.36631 -2.0475006 9.77622 0.0 -10.27662 0.0 8.12555 -9.84313 22.9838 0.0 3.36965 0.0 3.51322 2.3785 -29.8584 0.0 -17.52623 0.0 
  -0.32528099060058596 -3.5580999755859377 9.420859985351562 -162.347 73.6256 -189.869 4.2438 -25.8922 -0.719443 -3.6061 9.29598 0.138684 12.1907 32.5626 -2.06183 -26.4573 -76.0655 342.032 -121.3859 4.0348 13.5185 -37.2987 15.5702 -328.826 0.0 17.7473 0.0 6.90751 -9.13937 391.877 0.0 0.0 0.0 0.0 0.0 0.0 122.3386 -2.13545 -3.42628 42.8939 7.3392 -27.7195 0.0 17.0097 0.0 -1.02166 -3.51247 -15.6531 0.0 0.0 0.0 0.0 0.0 0.0 0.459889 -12.2731 -18.8876 0.0 4.57098 0.0 -4.29598 -2.0396004 9.8231 0.0 -10.25108 0.0 8.04896 -9.58158 22.2794 0.0 3.02588 0.0 3.35258 2.4630003 -29.7183 0.0 -17.51852 0.0 
  -0.32303199768066404 -3.5597100830078126 9.420050048828125 -162.491 73.4008 -189.875 4.35785 -25.8782 -0.599497 -3.64426 9.12193 0.148333 12.6526 32.4799 -2.5693 -26.5072 -76.063 342.217 -121.3129 3.77958 13.4435 -37.8776 13.904 -327.844 0.0 15.8411 0.0 6.14151 -9.90648 393.457 0.0 0.0 0.0 0.0 0.0 0.0 122.3621 -2.33904 -3.2235 42.8961 5.95869 -26.7071 0.0 14.9441 0.0 -0.754363 -4.33632 -16.7675 0.0 0.0 0.0 0.0 0.0 0.0 0.48794 -12.4403 -18.8184 0.0 4.51781 0.0 -4.33781 -2.0909996 9.86941 0.0 -10.221439 0.0 8.0956 -9.85447 22.7255 0.0 3.16568 0.0 3.43048 2.3542004 -29.9446 0.0 -17.4893 0.0 
  -0.32145599365234373 -3.5636700439453124 9.419619750976562 -162.661 73.3239 -189.876 4.34093 -25.7887 -0.601637 -3.52827 9.09319 0.16223 12.2857 32.4818 -2.10727 -26.434 -76.2229 341.914 -121.3147 3.38442 13.3856 -38.3941 12.3465 -327.429 0.0 14.1014 0.0 5.38232 -10.6367 395.083 0.0 0.0 0.0 0.0 0.0 0.0 122.2228 -2.54302 -3.15465 42.9988 4.83741 -24.8582 0.0 12.8615 0.0 -0.333992 -5.06104 -18.3634 0.0 0.0 0.0 0.0 0.0 0.0 0.495407 -12.4457 -18.6423 0.0 4.46239 0.0 -4.35108 -2.1123009 9.84989 0.0 -10.19697 0.0 8.08646 -9.91502 22.7546 0.0 3.16292 0.0 3.38051 2.3830004 -29.8363 0.0 -17.48898 0.0 
  -0.3192650032043457 -3.5669900512695314 9.419429931640625 -162.622 73.2361 -189.895 4.28586 -25.6959 -0.700968 -3.39709 9.07897 0.102318 12.4056 32.2418 -2.24659 -26.3434 -76.2804 342.081 -121.302 2.97223 13.3 -38.8266 10.7218 -327.441 0.0 12.7714 0.0 4.64266 -11.4939 396.636 0.0 0.0 0.0 0.0 0.0 0.0 122.064804 -2.82232 -2.86259 42.9898 3.53855 -23.5346 0.0 11.1796 0.0 -0.241938 -5.59932 -19.5648 0.0 0.0 0.0 0.0 0.0 0.0 0.507759 -12.5285 -18.6044 0.0 4.49535 0.0 -4.38227 -2.1413994 9.76406 0.0 -10.173719 0.0 8.10645 -9.98575 22.7272 0.0 3.18372 0.0 3.36886 2.3825998 -29.834 0.0 -17.50224 0.0 
  -0.3186879920959473 -3.576510009765625 9.41958984375 -162.706 73.2929 -190.077 4.33 -25.5987 -0.600766 -3.38269 9.19876 0.181921 12.7616 31.8792 -2.66217 -26.1044 -76.2675 342.579 -121.1857 2.5697 13.2114 -39.2447 9.12678 -328.14 0.0 11.4923 0.0 3.7188 -11.9471 397.643 0.0 0.0 0.0 0.0 0.0 0.0 121.8771 -3.07282 -2.78935 42.9965 2.35322 -22.1131 0.0 9.852 0.0 -0.163547 -6.28049 -20.6792 0.0 0.0 0.0 0.0 0.0 0.0 0.567401 -12.3184 -17.9572 0.0 4.36074 0.0 -4.30743 -2.1137009 9.44421 0.0 -10.16879 0.0 8.13944 -9.90221 22.9359 0.0 3.2394 0.0 3.28322 2.4301996 -29.8373 0.0 -17.47354 0.0 
  -0.3174349975585937 -3.576130065917969 9.420659790039062 -162.7 73.2739 -190.13 4.37456 -25.4101 -0.578953 -3.41382 9.19692 0.147459 12.8233 31.5885 -2.70267 -25.9933 -76.4358 342.638 -121.047 2.23982 12.9103 -39.6359 7.4203 -329.657 0.0 10.4584 0.0 2.77055 -12.4983 398.589 0.0 0.0 0.0 0.0 0.0 0.0 121.6983 -3.29582 -2.60582 42.9446 1.10746 -20.882 0.0 8.74877 0.0 -0.114469 -6.5327 -21.15 0.0 0.0 0.0 0.0 0.0 0.0 0.556639 -12.3972 -17.8337 0.0 4.49497 0.0 -4.29356 -2.1333008 9.36964 0.0 -10.11946 0.0 8.1721 -9.97424 22.9371 0.0 3.3437 0.0 3.23935 2.4616003 -29.8247 0.0 -17.45808 0.0 
  -0.3174790000915527 -3.5745001220703125 9.4227001953125 -162.787 73.2937 -190.172 4.42462 -25.1354 -0.502757 -3.48582 9.12222 0.152749 12.8169 31.3753 -2.62979 -26.0757 -76.73 342.421 -120.7671 1.94487 12.3471 -40.2099 5.75957 -332.41 0.0 9.13171 0.0 1.67939 -12.7202 399.425 0.0 0.0 0.0 0.0 0.0 0.0 121.5106 -3.52254 -2.53133 42.9024 0.0438754 -19.5217 0.0 7.73404 0.0 0.177399 -6.60732 -21.5422 0.0 0.0 0.0 0.0 0.0 0.0 0.526467 -12.4378 -17.8003 0.0 4.62927 0.0 -4.29275 -2.1404 9.47761 0.0 -10.074699 0.0 8.19792 -10.039 23.0235 0.0 3.47206 0.0 3.18852 2.5447998 -29.8246 0.0 -17.4839 0.0 
  -0.3176469993591309 -3.5720700073242186 9.425159912109375 -162.907 73.2954 -190.246 4.49965 -24.8591 -0.40752 -3.54892 8.95018 0.148261 13.0309 31.1617 -2.87404 -26.3732 -76.9129 342.234 -120.320496 1.54677 12.0218 -40.8482 4.40227 -335.939 0.0 8.02023 0.0 0.905006 -13.1654 400.013 0.0 0.0 0.0 0.0 0.0 0.0 121.2996 -3.63144 -2.51228 42.783 -1.03884 -18.8231 0.0 7.11594 0.0 0.795197 -7.23536 -21.8537 0.0 0.0 0.0 0.0 0.0 0.0 0.515384 -12.4663 -17.6866 0.0 4.70329 0.0 -4.24882 -2.1030998 9.58302 0.0 -10.10062 0.0 8.22947 -10.1386 23.2001 0.0 3.62015 0.0 3.17009 2.6288004 -29.8241 0.0 -17.54956 0.0 
  -0.318843994140625 -3.566090087890625 9.4281201171875 -162.969 73.3483 -190.356 4.52581 -24.4797 -0.373198 -3.53275 8.72928 0.111869 12.9732 31.0084 -2.84144 -26.8129 -77.1259 341.758 -119.9023 1.14674 11.5563 -41.3736 3.01992 -339.355 0.0 7.10461 0.0 0.504259 -13.3775 399.913 0.0 0.0 0.0 0.0 0.0 0.0 121.0357 -3.69185 -2.50493 42.6943 -2.00348 -18.0272 0.0 6.61426 0.0 1.25924 -7.61774 -22.5188 0.0 0.0 0.0 0.0 0.0 0.0 0.502436 -12.502 -17.6936 0.0 4.853 0.0 -4.25384 -2.0970993 9.74221 0.0 -10.08794 0.0 8.26332 -10.1973 23.307 0.0 3.74897 0.0 3.13687 2.7425003 -29.7849 0.0 -17.54473 0.0 
  -0.3213520050048828 -3.5562701416015625 9.431489868164062 -163.022 73.3459 -190.503 4.49963 -24.1147 -0.38132 -3.377 8.47981 0.0847624 12.6613 30.9106 -2.57656 -27.5123 -77.3564 340.919 -119.5037 0.755094 11.1523 -41.8787 1.80182 -343.9 0.0 6.61438 0.0 0.334217 -14.6034 399.506 0.0 0.0 0.0 0.0 0.0 0.0 120.7975 -3.73569 -2.50678 42.4015 -3.00061 -18.5872 0.0 6.7677 0.0 1.5428 -8.24869 -22.3174 0.0 0.0 0.0 0.0 0.0 0.0 0.514147 -12.6075 -17.6896 0.0 4.98937 0.0 -4.26358 -2.0723991 9.92146 0.0 -10.089809 0.0 8.3174 -10.3316 23.4595 0.0 3.86908 0.0 3.18177 2.8697004 -29.7232 0.0 -17.60999 0.0 
  -0.3235829925537109 -3.5533401489257814 9.434099731445313 -163.384 73.3127 -190.644 4.49656 -24.0083 -0.251841 -3.16935 8.47361 0.242858 12.2675 30.6685 -2.337 -28.0264 -77.3941 340.3 -119.1472 0.429522 10.9016 -42.373 0.812917 -349.432 0.0 6.12854 0.0 0.495737 -15.5075 399.272 0.0 0.0 0.0 0.0 0.0 0.0 120.4647 -3.77426 -2.50259 42.3016 -3.60639 -17.8617 0.0 6.49897 0.0 1.98027 -8.53721 -22.719 0.0 0.0 0.0 0.0 0.0 0.0 0.541399 -12.5597 -17.3343 0.0 4.90474 0.0 -4.1997 -2.0240002 10.1102 0.0 -10.102819 0.0 8.32776 -10.4234 23.8408 0.0 3.89418 0.0 3.17832 3.0335999 -29.618 0.0 -17.64506 0.0 
  -0.3270009994506836 -3.5354299926757813 9.435999755859376 -163.413 73.1718 -190.658 4.41961 -23.7128 -0.384595 -2.92079 8.16284 0.129668 11.9034 30.4929 -2.12891 -28.8584 -77.4916 339.481 -119.0177 0.0523888 10.7933 -42.5971 0.202605 -356.5 0.0 5.29315 0.0 0.800099 -15.9513 398.13 0.0 0.0 0.0 0.0 0.0 0.0 120.2599 -3.81308 -2.52679 42.0585 -3.98403 -17.1296 0.0 6.3461 0.0 2.32733 -8.81276 -23.4412 0.0 0.0 0.0 0.0 0.0 0.0 0.54516 -12.9108 -17.466 0.0 5.1153 0.0 -4.27041 -2.0342007 10.2312 0.0 -10.11185 0.0 8.36745 -10.69 23.8146 0.0 3.91512 0.0 3.24551 3.1348 -29.5018 0.0 -17.65221 0.0 
  -0.32947799682617185 -3.517019958496094 9.437169799804687 -163.584 73.003 -190.643 4.40115 -23.4453 -0.419254 -2.70386 7.78805 0.0732235 11.5421 30.428 -1.95906 -29.9974 -77.5714 338.377 -118.9828 -0.367414 10.8511 -42.7168 0.207709 -365.594 0.0 3.6859 0.0 2.83909 -15.6289 400.091 0.0 0.0 0.0 0.0 0.0 0.0 120.1239 -3.89324 -2.58832 41.7705 -4.19882 -16.3607 0.0 6.27073 0.0 2.46633 -8.89916 -24.0963 0.0 0.0 0.0 0.0 0.0 0.0 0.542093 -13.2448 -17.4596 0.0 5.2503 0.0 -4.33057 -2.0419998 10.3379 0.0 -10.094379 0.0 8.37325 -10.9752 23.7535 0.0 3.89401 0.0 3.27384 3.2495003 -29.2502 0.0 -17.6276 0.0 
  -0.33292999267578127 -3.4986300659179688 9.437890014648438 -163.768 72.8698 -190.623 4.33432 -23.2988 -0.495042 -2.41959 7.65015 0.0451163 10.98 30.362 -1.5759 -31.1656 -77.6724 337.122 -119.2493 -0.736782 10.7806 -42.3185 0.390091 -375.519 0.0 2.06599 0.0 5.14587 -16.8065 397.431 0.0 0.0 0.0 0.0 0.0 0.0 120.0336 -3.92193 -2.54086 41.4021 -4.22888 -15.4944 0.0 6.24822 0.0 2.76678 -8.95979 -24.2973 0.0 0.0 0.0 0.0 0.0 0.0 0.549404 -13.5249 -17.3763 0.0 5.34534 0.0 -4.39384 -2.0307999 10.3658 0.0 -10.119471 0.0 8.36873 -11.1955 23.7778 0.0 3.81082 0.0 3.30639 3.3660002 -29.0883 0.0 -17.59696 0.0 
